<?xml version="1.0" encoding="UTF-8" standalone="no"?>
<svg
   xmlns:dc="http://purl.org/dc/elements/1.1/"
   xmlns:cc="http://creativecommons.org/ns#"
   xmlns:rdf="http://www.w3.org/1999/02/22-rdf-syntax-ns#"
   xmlns:svg="http://www.w3.org/2000/svg"
   xmlns="http://www.w3.org/2000/svg"
   xmlns:sodipodi="http://sodipodi.sourceforge.net/DTD/sodipodi-0.dtd"
   xmlns:inkscape="http://www.inkscape.org/namespaces/inkscape"
   viewBox="0 0 598.20001 524.3606"
   id="svg2"
   version="1.1"
   inkscape:version="0.91 r13725"
   sodipodi:docname="milla-src.svg">
  <metadata
     id="metadata68">
    <rdf:RDF>
      <cc:Work
         rdf:about="">
        <dc:format>image/svg+xml</dc:format>
        <dc:type
           rdf:resource="http://purl.org/dc/dcmitype/StillImage" />
        <dc:title />
      </cc:Work>
    </rdf:RDF>
  </metadata>
  <sodipodi:namedview
     pagecolor="#ffffff"
     bordercolor="#666666"
     borderopacity="1"
     objecttolerance="10"
     gridtolerance="10"
     guidetolerance="10"
     inkscape:pageopacity="0"
     inkscape:pageshadow="2"
     inkscape:window-width="1920"
     inkscape:window-height="1023"
     id="namedview66"
     showgrid="false"
     inkscape:zoom="1.1773292"
     inkscape:cx="298.39669"
     inkscape:cy="266.17249"
     inkscape:window-x="0"
     inkscape:window-y="0"
     inkscape:window-maximized="1"
     inkscape:current-layer="g40" />
  <defs
     id="defs4">
    <filter
       id="d">
      <feGaussianBlur
         stdDeviation="15.2134"
         id="feGaussianBlur7" />
    </filter>
    <filter
       id="a">
      <feGaussianBlur
         in="SourceGraphic"
         result="result0"
         stdDeviation="6"
         id="feGaussianBlur10" />
      <feDiffuseLighting
         result="result5"
         surfaceScale="10"
         id="feDiffuseLighting12">
        <feDistantLight
           azimuth="235"
           elevation="25"
           id="feDistantLight14" />
      </feDiffuseLighting>
      <feComposite
         in="result5"
         in2="SourceGraphic"
         k1="1"
         k3=".6"
         operator="arithmetic"
         result="result4"
         id="feComposite16" />
    </filter>
    <filter
       id="b">
      <feGaussianBlur
         in="SourceGraphic"
         result="result0"
         stdDeviation="6"
         id="feGaussianBlur19" />
      <feDiffuseLighting
         result="result5"
         surfaceScale="10"
         id="feDiffuseLighting21">
        <feDistantLight
           azimuth="235"
           elevation="25"
           id="feDistantLight23" />
      </feDiffuseLighting>
      <feComposite
         in="result5"
         in2="SourceGraphic"
         k1="1"
         k3=".6"
         operator="arithmetic"
         result="fbSourceGraphic"
         id="feComposite25" />
      <feColorMatrix
         in="fbSourceGraphic"
         result="fbSourceGraphicAlpha"
         values="0 0 0 -1 0 0 0 0 -1 0 0 0 0 -1 0 0 0 0 1 0"
         id="feColorMatrix27" />
      <feGaussianBlur
         in="fbSourceGraphic"
         result="result0"
         stdDeviation="6"
         id="feGaussianBlur29" />
      <feDiffuseLighting
         result="result5"
         surfaceScale="10"
         id="feDiffuseLighting31">
        <feDistantLight
           azimuth="235"
           elevation="25"
           id="feDistantLight33" />
      </feDiffuseLighting>
      <feComposite
         in="result5"
         in2="fbSourceGraphic"
         k1="1"
         k3=".6"
         operator="arithmetic"
         result="result4"
         id="feComposite35" />
    </filter>
    <filter
       id="c"
       x="-.31949"
       y="-.09632"
       width="1.639"
       height="1.1926">
      <feGaussianBlur
         stdDeviation="9.4515"
         id="feGaussianBlur38" />
    </filter>
  </defs>
  <g
     transform="translate(60.35 -403.17)"
     id="g40">
    <path
       d="m 408.74016,865.37589 21.80549,-0.4209 1.50151,15.45585 -25.47076,-0.3003 z"
       id="path42"
       style="fill:#000000;stroke:#775c17;stroke-width:1.11399996;stroke-linecap:round;stroke-linejoin:round;filter:url(#a)"
       inkscape:connector-curvature="0"
       sodipodi:nodetypes="ccccc"
       transform="matrix(0.88501583,0,0,1.010092,59.304224,-6.7146313)" />
    <path
       transform="matrix(0.88501583,0,0,1.010092,8.4158138,396.17065)"
       d="m 407.33,281.33 c 2.8889,-3.2896 8.4776,-18.727 15.333,-24.667 37.772,-32.726 80.662,-54.902 122,-79.333 -23.236,51.98 -19.48227,27.67429 -34.72327,78.05429 -15.356,46.228 -20.84279,168.60671 -21.97679,211.27571 l -21.80131,-0.0661 c 1.35036,-47.27068 3.81321,-96.94079 -5.156,-169.52887 C 453.84428,239.108 411.1047,281.4453 407.3297,281.3263 Z"
       id="path44"
       style="fill:#aa00d4;stroke:#4f3d0e;filter:url(#a)"
       inkscape:connector-curvature="0"
       sodipodi:nodetypes="ccccccscc" />
    <path
       transform="matrix(0.88501583,0,0,1.010092,8.4158138,396.17065)"
       d="m 410.67,271 -8.6667,45 c -7.5556,34.474 -12.104,63.548 -22.667,94 -4.008,11.555 -8.3866,23.267 -15.333,33.333 -10.621,15.39 -22.934,31.015 -39.333,40 -10.583,5.7985 -35.417,7.5 -35.417,7.5 29.46,-10.317 58.87,-24.548 66.75,-51.833 8.1744,-28.305 10.621,-43.151 16.167,-64.667 5.9972,-23.267 9.1921,-47.516 18.5,-69.667 5.0566,-12.034 14.998,-29.157 20,-33.667 z"
       id="path46"
       style="fill:#800000;stroke:#775c17;filter:url(#a)"
       inkscape:connector-curvature="0" />
    <path
       transform="matrix(0.88501583,0,0,1.010092,8.4158138,396.17065)"
       d="m 437.5,48.5 c -1.3069,-4.7894 -0.8263,-8.8638 4.5,-11 6.096,-1.5362 12.379,-2.6231 25,11.5 l -4,4 c -3.4765,-5.5235 -5.227,-12.773 -15,-12 -5.459,-2.3257 -7.5294,3.5619 -10.5,7.5 z"
       id="path48"
       style="fill:#800000;stroke:#775c17;filter:url(#a)"
       inkscape:connector-curvature="0" />
    <path
       transform="matrix(0.88501583,0,0,1.010092,8.4158138,396.17065)"
       d="m 466,51 -74.5,105 c -10.514,14.968 -25.055,36.831 -38,59 -29.261,50.113 -29.414,56.866 -44,80 -11.045,23.332 -26.02,56.873 -38,69.5 l -21.5,21 c 7.4051,-9.2626 12.72,-13.301 22.5,-28.5 8.8975,-11.019 19.093,-34.286 27.5,-52 5.508,-11.606 9.5491,-23.867 15,-35.5 12.177,-25.987 39.5,-76.5 39.5,-76.5 10.359,-22.323 22.305,-42.31 46.5,-83.5 8.1532,-13.88 24.919,-36.555 33.5,-53 L 441,43 c 3.4206,-7.1043 18.154,-0.41003 22,11.5 l 0.5,-2 z"
       id="path50"
       style="fill:#800080;stroke:#775c17;filter:url(#a)"
       inkscape:connector-curvature="0" />
    <path
       d="m 371.71481,490.61425 c -18.17741,25.66853 -30.32827,48.00867 -38.62267,66.9385 -6.28082,14.33433 -10.35032,26.71318 -13.15075,37.10098 l 20.35536,-42.42387 z"
       id="path52"
       inkscape:connector-curvature="0"
       style="fill:#800000;stroke:#775c17;stroke-width:0.94548792"
       sodipodi:nodetypes="csccc" />
    <path
       transform="matrix(0.88501583,0,0,1.010092,8.4158138,396.17065)"
       d="m 270.5,360.5 c -19.333,2.998 -36.897,-1.0781 -55,-3 -8.9009,-1.7567 -15.598,-0.57536 -20.5,3 -9.3009,7.7196 -6.9397,8.7751 -7.5,11.5 0.21716,7 7.1688,12 18,19 7.3467,0.6934 22.062,5.7276 33,1 l 13.5,-7 c 3.4145,-1.7705 4.5055,-6.1612 6.5,-9.5 -4.0678,2.5494 -8.9839,7.1747 -15.5,8.5 -7,5.4302 -14,4.6392 -21,5 -9.1243,-1.0597 -14.523,-3.835 -17.5,-6 -7.7812,-5.6591 -10.102,-7.2608 -11.5,-11.5 -0.6623,-3.6239 2.8726,-6.1985 7.5,-8.5 0,0 13,-2 15.5,-2 2.5,0 19.5,3 19.5,3 11.436,2.0389 21.334,1.0012 31.5,0.5 z"
       id="path54"
       style="opacity:0.79369998;fill:#800080;stroke:#775c17;filter:url(#b)"
       inkscape:connector-curvature="0" />
    <path
       transform="matrix(0.88501583,0,0,1.010092,8.4158138,396.17065)"
       d="m 47,435 c 31.706,15.529 76.683,22.211 115.5,33 25.722,4.6805 48.48,8.62 79,14.5 18.754,0.7041 42.192,3.3548 52.5,0.5 23.131,-6.4062 31.874,-13.637 64,-51.25 -0.71757,8.2599 -8.759,24.871 -17.5,34.25 -8.3602,8.9704 -20.188,14.266 -31.5,19 -7.4578,3.1212 -15.456,5.1863 -23.5,6 -20.586,2.0824 -41.437,-0.70166 -62,-3 -23.882,-2.6693 -71,-12.5 -71,-12.5 0,0 -49.5,-12.5 -54.5,-14 C 93,460 57.26,451.046 54.5,449 c -1.9341,-1.4341 -3.2355,-1.2355 -6.5,-4 -3.2542,-5.0495 -1.3583,-7.3407 -1,-10 z"
       id="path56"
       style="fill:#800000;stroke:#775c17;filter:url(#a)"
       inkscape:connector-curvature="0" />
    <path
       transform="matrix(0.88501583,0,0,1.010092,8.4158138,396.17065)"
       d="m 190,365.5 c -8.1667,7.3504 -18.833,7.5564 -27,10 l -61.5,12 c -20.785,5 -27.117,12 -36,17 -9.5684,5.306 -14.973,23.577 -18,31.5 33.934,13.828 71.108,21.964 107.71,30.638 36.602,8.674 74.325,15.29 111.29,17.362 26.674,1.4948 43.253,0.54708 66.441,-20.477 14.398,-13.054 25.259,-27.47 30.559,-46.523 7.6422,-27.472 9.3673,-39.325 14,-59 4.1974,-17.826 4.5411,-37.006 12.5,-53.5 8.8687,-18.379 18.931,-33.336 38,-48 18.667,-17.836 29.553,-25.694 45.5,-37 9.0944,-6.4474 19.061,-11.569 28.5,-17.5 2.3487,-1.4758 7,-4.5 7,-4.5 l 36,-19.5 -9,-34 c -3.9,-14.733 -9.3516,-31.208 -22.5,-45.5 l -46,-50 -49,70.5 c 0,0 -41.064,54.521 -59,83.5 -19.819,32.02 -35.549,66.397 -53.5,99.5 -11.591,21.375 -18.499,46.141 -35,64 -10.949,11.849 -24.698,23.247 -40.5,26.5 -10.698,2.202 -22.82,-0.18578 -32.275,-5.6533 -4.8291,-2.7925 -9.5907,-7.3849 -10.725,-12.847 -0.6006,-2.8916 2.5,-8.5 2.5,-8.5 z"
       id="path58"
       style="fill:#800080;stroke:#775c17;filter:url(#a)"
       inkscape:connector-curvature="0" />
    <path
       d="m 245.60006,763.84413 c -1.77003,0 -46.02083,-2.02018 -46.02083,-2.02018 -9.72721,-2.29877 -18.57648,-0.49065 -19.47034,8.58578 -0.7631,7.74922 9.11831,13.99179 15.93028,16.66652 8.81476,3.46138 19.28273,1.59211 27.878,-2.52523 9.92014,-4.75178 17.11621,-15.34532 21.68289,-20.70689 z"
       id="path60"
       style="fill:#800000;stroke:#775c17;stroke-width:0.94548792;stroke-linecap:round;stroke-linejoin:round"
       inkscape:connector-curvature="0" />
    <path
       transform="matrix(0.88501583,0,0,1.010092,8.4158138,396.17065)"
       d="m 176,394 c -34.873,-4.6523 -75.401,8.5987 -104,18 56.881,25.511 134.39,54.833 203,45 15.063,-2.1588 30.471,-10.136 40,-22 20.014,-24.917 17.131,-61.602 27,-92 11.037,-33.995 12.926,-73.705 36,-101 33.527,-39.659 98.715,-53.613 136,-76 6.6722,-33.669 -41.543,-53.166 -57,-77 0,0 -59.251,81.009 -85,124 -20.836,34.789 -36.015,72.715 -56,108 -16.595,29.3 -23.745,69.326 -53,86 -16.51,9.4095 -38.413,4.9528 -57,1 -10.794,-2.2955 -19.062,-12.541 -30,-14 z"
       id="path64"
       style="fill:#ff00ff;stroke:#899cf3;filter:url(#d)"
       inkscape:connector-curvature="0" />
  </g>
</svg>
